{
  "accessors": [
    {
      "bufferView": 2,
      "componentType": 5126,
      "count": 65532,
      "max": [
        1.3169620037078857,
        1.2372759580612183,
        1.7011699676513672
      ],
      "min": [
        -1.3169610500335693,
        -2.315722942352295,
        -2.0183780193328857
      ],
      "type": "VEC3"
    },
    {
      "bufferView": 2,
      "byteOffset": 786384,
      "componentType": 5126,
      "count": 65532,
      "max": [
        0.9999890923500061,
        0.9999983310699463,
        0.9999647736549377
      ],
      "min": [
        -0.9996838569641113,
        -0.9999780058860779,
        -0.9999436140060425
      ],
      "type": "VEC3"
    },
    {
      "bufferView": 3,
      "componentType": 5126,
      "count": 65532,
      "max": [
        0.9999983906745911,
        0.9999972581863403,
        0.9999838471412659,
        1.0
      ],
      "min": [
        -0.9999955892562866,
        -0.9998897314071655,
        -0.9999818801879883,
        -1.0
      ],
      "type": "VEC4"
    },
    {
      "bufferView": 1,
      "componentType": 5126,
      "count": 65532,
      "max": [
        0.996999979019165,
        0.9980400204658508
      ],
      "min": [
        0.008089999668300152,
        0.06290999799966812
      ],
      "type": "VEC2"
    },
    {
      "bufferView": 0,
      "componentType": 5125,
      "count": 369969,
      "type": "SCALAR"
    },
    {
      "bufferView": 2,
      "byteOffset": 1572768,
      "componentType": 5126,
      "count": 65532,
      "max": [
        1.8118139505386353,
        1.551558017730713,
        1.9790459871292114
      ],
      "min": [
        -1.5321470499038696,
        -2.4032530784606934,
        -2.354901075363159
      ],
      "type": "VEC3"
    },
    {
      "bufferView": 2,
      "byteOffset": 2359152,
      "componentType": 5126,
      "count": 65532,
      "max": [
        0.999988853931427,
        0.9999668598175049,
        0.9999996423721313
      ],
      "min": [
        -0.9999881386756897,
        -0.9999706149101257,
        -0.9999992251396179
      ],
      "type": "VEC3"
    },
    {
      "bufferView": 3,
      "byteOffset": 1048512,
      "componentType": 5126,
      "count": 65532,
      "max": [
        1.0,
        0.9999757409095764,
        0.9999169707298279,
        1.0
      ],
      "min": [
        -1.0,
        -0.9999975562095642,
        -0.9999857544898987,
        -1.0
      ],
      "type": "VEC4"
    },
    {
      "bufferView": 1,
      "byteOffset": 524256,
      "componentType": 5126,
      "count": 65532,
      "max": [
        0.9980400204658508,
        0.9804800152778625
      ],
      "min": [
        0.046470001339912415,
        0.0019499999471008778
      ],
      "type": "VEC2"
    },
    {
      "bufferView": 0,
      "byteOffset": 1479876,
      "componentType": 5125,
      "count": 363264,
      "type": "SCALAR"
    },
    {
      "bufferView": 2,
      "byteOffset": 3145536,
      "componentType": 5126,
      "count": 178,
      "max": [
        1.1585750579833984,
        1.478124976158142,
        1.4792569875717163
      ],
      "min": [
        -0.0,
        -2.3761250972747803,
        -0.15842300653457642
      ],
      "type": "VEC3"
    },
    {
      "bufferView": 2,
      "byteOffset": 3147672,
      "componentType": 5126,
      "count": 178,
      "max": [
        0.982790470123291,
        0.964843213558197,
        0.7903649806976318
      ],
      "min": [
        -0.7728891968727112,
        -0.976864218711853,
        -0.9924246668815613
      ],
      "type": "VEC3"
    },
    {
      "bufferView": 3,
      "byteOffset": 2097024,
      "componentType": 5126,
      "count": 178,
      "max": [
        0.9861060380935669,
        0.9992179870605469,
        0.883891761302948,
        -1.0
      ],
      "min": [
        -0.9999958276748657,
        -0.45977795124053955,
        -0.7197544574737549,
        -1.0
      ],
      "type": "VEC4"
    },
    {
      "bufferView": 1,
      "byteOffset": 1048512,
      "componentType": 5126,
      "count": 178,
      "max": [
        0.9923999905586243,
        0.7493799924850464
      ],
      "min": [
        0.2664400041103363,
        0.0721300020813942
      ],
      "type": "VEC2"
    },
    {
      "bufferView": 0,
      "byteOffset": 2932932,
      "componentType": 5125,
      "count": 399,
      "type": "SCALAR"
    }
  ],
  "asset": {
    "extras": {
      "author": "nataliedesign (https://sketchfab.com/nataliedesign)",
      "license": "CC-BY-4.0 (http://creativecommons.org/licenses/by/4.0/)",
      "source": "https://sketchfab.com/3d-models/wakfu-characters-yugo-23153d7ae7e24744b705e93741b70258",
      "title": "Wakfu Characters: Yugo"
    },
    "generator": "Sketchfab-12.67.0",
    "version": "2.0"
  },
  "bufferViews": [
    {
      "buffer": 0,
      "byteLength": 2934528,
      "name": "floatBufferViews",
      "target": 34963
    },
    {
      "buffer": 0,
      "byteLength": 1049936,
      "byteOffset": 2934528,
      "byteStride": 8,
      "name": "floatBufferViews",
      "target": 34962
    },
    {
      "buffer": 0,
      "byteLength": 3149808,
      "byteOffset": 3984464,
      "byteStride": 12,
      "name": "floatBufferViews",
      "target": 34962
    },
    {
      "buffer": 0,
      "byteLength": 2099872,
      "byteOffset": 7134272,
      "byteStride": 16,
      "name": "floatBufferViews",
      "target": 34962
    }
  ],
  "buffers": [
    {
      "byteLength": 9234144,
      "uri": "scene.bin"
    }
  ],
  "images": [
    {
      "uri": "textures/defaultMat_baseColor.jpeg"
    },
    {
      "uri": "textures/defaultMat_metallicRoughness.png"
    },
    {
      "uri": "textures/defaultMat_normal.jpeg"
    }
  ],
  "materials": [
    {
      "doubleSided": true,
      "name": "defaultMat",
      "normalTexture": {
        "index": 2
      },
      "pbrMetallicRoughness": {
        "baseColorTexture": {
          "index": 0
        },
        "metallicFactor": 0.2029344512195122,
        "metallicRoughnessTexture": {
          "index": 1
        },
        "roughnessFactor": 0.5504954268292683
      }
    }
  ],
  "meshes": [
    {
      "name": "Object_0",
      "primitives": [
        {
          "attributes": {
            "NORMAL": 1,
            "POSITION": 0,
            "TANGENT": 2,
            "TEXCOORD_0": 3
          },
          "indices": 4,
          "material": 0,
          "mode": 4
        }
      ]
    },
    {
      "name": "Object_1",
      "primitives": [
        {
          "attributes": {
            "NORMAL": 6,
            "POSITION": 5,
            "TANGENT": 7,
            "TEXCOORD_0": 8
          },
          "indices": 9,
          "material": 0,
          "mode": 4
        }
      ]
    },
    {
      "name": "Object_2",
      "primitives": [
        {
          "attributes": {
            "NORMAL": 11,
            "POSITION": 10,
            "TANGENT": 12,
            "TEXCOORD_0": 13
          },
          "indices": 14,
          "material": 0,
          "mode": 4
        }
      ]
    }
  ],
  "nodes": [
    {
      "children": [
        1
      ],
      "matrix": [
        1.0,
        0.0,
        0.0,
        0.0,
        0.0,
        2.220446049250313e-16,
        -1.0,
        0.0,
        0.0,
        1.0,
        2.220446049250313e-16,
        0.0,
        0.0,
        0.0,
        0.0,
        1.0
      ],
      "name": "Sketchfab_model"
    },
    {
      "children": [
        2,
        3,
        4
      ],
      "name": "krushMaster_yugo.obj.cleaner.materialmerger.gles"
    },
    {
      "mesh": 0,
      "name": "Object_2"
    },
    {
      "mesh": 1,
      "name": "Object_3"
    },
    {
      "mesh": 2,
      "name": "Object_4"
    }
  ],
  "samplers": [
    {
      "magFilter": 9729,
      "minFilter": 9987,
      "wrapS": 10497,
      "wrapT": 10497
    }
  ],
  "scene": 0,
  "scenes": [
    {
      "name": "Sketchfab_Scene",
      "nodes": [
        0
      ]
    }
  ],
  "textures": [
    {
      "sampler": 0,
      "source": 0
    },
    {
      "sampler": 0,
      "source": 1
    },
    {
      "sampler": 0,
      "source": 2
    }
  ]
}
